<svg xmlns="http://www.w3.org/2000/svg" xmlns:xlink="http://www.w3.org/1999/xlink" contentStyleType="text/css" data-diagram-type="CLASS" height="278px" preserveAspectRatio="none" style="width:843px;height:278px;background:#FFFFFF;" version="1.1" viewBox="0 0 843 278" width="843px" zoomAndPan="magnify"><defs/><g><!--class Organization--><g class="entity" data-entity="Organization" data-source-line="2" data-uid="ent0002" id="entity_Organization"><rect fill="#F1F1F1" height="48" rx="2.5" ry="2.5" style="stroke:#181818;stroke-width:0.5;" width="117.6657" x="395.08" y="7"/><ellipse cx="410.08" cy="23" fill="#ADD1B2" rx="11" ry="11" style="stroke:#181818;stroke-width:1;"/><path d="M410.1894,18.5313 Q409.2675,18.5313 408.5331,18.8438 Q407.8144,19.1563 407.3144,19.75 Q406.8144,20.3281 406.5331,21.2031 Q406.2675,22.0781 406.2675,23.1719 Q406.2675,24.6094 406.705,25.6563 Q407.1581,26.7031 408.0019,27.25 Q408.8613,27.7969 410.1738,27.7969 Q410.955,27.7969 411.6425,27.6719 Q412.3456,27.5313 413.3456,27.2188 L413.3456,29.0938 Q412.4863,29.4219 411.7206,29.5469 Q410.9706,29.6719 409.955,29.6719 Q408.0331,29.6719 406.7206,28.875 Q405.4238,28.0625 404.7675,26.5938 Q404.1113,25.1094 404.1113,23.1406 Q404.1113,21.7188 404.5019,20.5469 Q404.9081,19.3594 405.6894,18.4844 Q406.4706,17.6094 407.6113,17.1406 Q408.7519,16.6563 410.2206,16.6563 Q411.1738,16.6563 412.0644,16.8594 Q412.9706,17.0469 413.9081,17.5156 L413.08,19.2969 Q412.2988,18.9219 411.6425,18.7344 Q410.9863,18.5313 410.1894,18.5313 Z " fill="#000000"/><text fill="#000000" font-family="sans-serif" font-size="14" lengthAdjust="spacing" textLength="85.6657" x="424.08" y="28.432">Organization</text><line style="stroke:#181818;stroke-width:0.5;" x1="396.08" x2="511.7457" y1="39" y2="39"/><line style="stroke:#181818;stroke-width:0.5;" x1="396.08" x2="511.7457" y1="47" y2="47"/></g><!--class FRCoreOrganizationProfile--><g class="entity" data-entity="FRCoreOrganizationProfile" data-source-line="4" data-uid="ent0003" id="entity_FRCoreOrganizationProfile"><rect fill="#F1F1F1" height="48" rx="2.5" ry="2.5" style="stroke:#181818;stroke-width:0.5;" width="207.2933" x="350.26" y="115"/><ellipse cx="365.26" cy="131" fill="#ADD1B2" rx="11" ry="11" style="stroke:#181818;stroke-width:1;"/><path d="M365.3694,126.5313 Q364.4475,126.5313 363.7131,126.8438 Q362.9944,127.1563 362.4944,127.75 Q361.9944,128.3281 361.7131,129.2031 Q361.4475,130.0781 361.4475,131.1719 Q361.4475,132.6094 361.885,133.6563 Q362.3381,134.7031 363.1819,135.25 Q364.0413,135.7969 365.3538,135.7969 Q366.135,135.7969 366.8225,135.6719 Q367.5256,135.5313 368.5256,135.2188 L368.5256,137.0938 Q367.6663,137.4219 366.9006,137.5469 Q366.1506,137.6719 365.135,137.6719 Q363.2131,137.6719 361.9006,136.875 Q360.6038,136.0625 359.9475,134.5938 Q359.2913,133.1094 359.2913,131.1406 Q359.2913,129.7188 359.6819,128.5469 Q360.0881,127.3594 360.8694,126.4844 Q361.6506,125.6094 362.7913,125.1406 Q363.9319,124.6563 365.4006,124.6563 Q366.3538,124.6563 367.2444,124.8594 Q368.1506,125.0469 369.0881,125.5156 L368.26,127.2969 Q367.4788,126.9219 366.8225,126.7344 Q366.1663,126.5313 365.3694,126.5313 Z " fill="#000000"/><text fill="#000000" font-family="sans-serif" font-size="14" lengthAdjust="spacing" textLength="175.2933" x="379.26" y="136.432">FRCoreOrganizationProfile</text><line style="stroke:#181818;stroke-width:0.5;" x1="351.26" x2="556.5533" y1="147" y2="147"/><line style="stroke:#181818;stroke-width:0.5;" x1="351.26" x2="556.5533" y1="155" y2="155"/></g><!--class FRCoreOrganizationEtablissementProfile--><g class="entity" data-entity="FRCoreOrganizationEtablissementProfile" data-source-line="6" data-uid="ent0005" id="entity_FRCoreOrganizationEtablissementProfile"><rect fill="#F1F1F1" height="48" rx="2.5" ry="2.5" style="stroke:#181818;stroke-width:0.5;" width="299.819" x="7" y="223"/><ellipse cx="22" cy="239" fill="#ADD1B2" rx="11" ry="11" style="stroke:#181818;stroke-width:1;"/><path d="M22.1094,234.5313 Q21.1875,234.5313 20.4531,234.8438 Q19.7344,235.1563 19.2344,235.75 Q18.7344,236.3281 18.4531,237.2031 Q18.1875,238.0781 18.1875,239.1719 Q18.1875,240.6094 18.625,241.6563 Q19.0781,242.7031 19.9219,243.25 Q20.7813,243.7969 22.0938,243.7969 Q22.875,243.7969 23.5625,243.6719 Q24.2656,243.5313 25.2656,243.2188 L25.2656,245.0938 Q24.4063,245.4219 23.6406,245.5469 Q22.8906,245.6719 21.875,245.6719 Q19.9531,245.6719 18.6406,244.875 Q17.3438,244.0625 16.6875,242.5938 Q16.0313,241.1094 16.0313,239.1406 Q16.0313,237.7188 16.4219,236.5469 Q16.8281,235.3594 17.6094,234.4844 Q18.3906,233.6094 19.5313,233.1406 Q20.6719,232.6563 22.1406,232.6563 Q23.0938,232.6563 23.9844,232.8594 Q24.8906,233.0469 25.8281,233.5156 L25,235.2969 Q24.2188,234.9219 23.5625,234.7344 Q22.9063,234.5313 22.1094,234.5313 Z " fill="#000000"/><text fill="#000000" font-family="sans-serif" font-size="14" lengthAdjust="spacing" textLength="267.819" x="36" y="244.432">FRCoreOrganizationEtablissementProfile</text><line style="stroke:#181818;stroke-width:0.5;" x1="8" x2="305.819" y1="255" y2="255"/><line style="stroke:#181818;stroke-width:0.5;" x1="8" x2="305.819" y1="263" y2="263"/></g><!--class FRCoreOrganizationUFProfile--><g class="entity" data-entity="FRCoreOrganizationUFProfile" data-source-line="8" data-uid="ent0007" id="entity_FRCoreOrganizationUFProfile"><rect fill="#F1F1F1" height="48" rx="2.5" ry="2.5" style="stroke:#181818;stroke-width:0.5;" width="224.7933" x="341.51" y="223"/><ellipse cx="356.51" cy="239" fill="#ADD1B2" rx="11" ry="11" style="stroke:#181818;stroke-width:1;"/><path d="M356.6194,234.5313 Q355.6975,234.5313 354.9631,234.8438 Q354.2444,235.1563 353.7444,235.75 Q353.2444,236.3281 352.9631,237.2031 Q352.6975,238.0781 352.6975,239.1719 Q352.6975,240.6094 353.135,241.6563 Q353.5881,242.7031 354.4319,243.25 Q355.2913,243.7969 356.6038,243.7969 Q357.385,243.7969 358.0725,243.6719 Q358.7756,243.5313 359.7756,243.2188 L359.7756,245.0938 Q358.9163,245.4219 358.1506,245.5469 Q357.4006,245.6719 356.385,245.6719 Q354.4631,245.6719 353.1506,244.875 Q351.8538,244.0625 351.1975,242.5938 Q350.5413,241.1094 350.5413,239.1406 Q350.5413,237.7188 350.9319,236.5469 Q351.3381,235.3594 352.1194,234.4844 Q352.9006,233.6094 354.0413,233.1406 Q355.1819,232.6563 356.6506,232.6563 Q357.6038,232.6563 358.4944,232.8594 Q359.4006,233.0469 360.3381,233.5156 L359.51,235.2969 Q358.7288,234.9219 358.0725,234.7344 Q357.4163,234.5313 356.6194,234.5313 Z " fill="#000000"/><text fill="#000000" font-family="sans-serif" font-size="14" lengthAdjust="spacing" textLength="192.7933" x="370.51" y="244.432">FRCoreOrganizationUFProfile</text><line style="stroke:#181818;stroke-width:0.5;" x1="342.51" x2="565.3033" y1="255" y2="255"/><line style="stroke:#181818;stroke-width:0.5;" x1="342.51" x2="565.3033" y1="263" y2="263"/></g><!--class FRCoreOrganizationUACProfile--><g class="entity" data-entity="FRCoreOrganizationUACProfile" data-source-line="10" data-uid="ent0009" id="entity_FRCoreOrganizationUACProfile"><rect fill="#F1F1F1" height="48" rx="2.5" ry="2.5" style="stroke:#181818;stroke-width:0.5;" width="235.3212" x="601.25" y="223"/><ellipse cx="616.25" cy="239" fill="#ADD1B2" rx="11" ry="11" style="stroke:#181818;stroke-width:1;"/><path d="M616.3594,234.5313 Q615.4375,234.5313 614.7031,234.8438 Q613.9844,235.1563 613.4844,235.75 Q612.9844,236.3281 612.7031,237.2031 Q612.4375,238.0781 612.4375,239.1719 Q612.4375,240.6094 612.875,241.6563 Q613.3281,242.7031 614.1719,243.25 Q615.0313,243.7969 616.3438,243.7969 Q617.125,243.7969 617.8125,243.6719 Q618.5156,243.5313 619.5156,243.2188 L619.5156,245.0938 Q618.6563,245.4219 617.8906,245.5469 Q617.1406,245.6719 616.125,245.6719 Q614.2031,245.6719 612.8906,244.875 Q611.5938,244.0625 610.9375,242.5938 Q610.2813,241.1094 610.2813,239.1406 Q610.2813,237.7188 610.6719,236.5469 Q611.0781,235.3594 611.8594,234.4844 Q612.6406,233.6094 613.7813,233.1406 Q614.9219,232.6563 616.3906,232.6563 Q617.3438,232.6563 618.2344,232.8594 Q619.1406,233.0469 620.0781,233.5156 L619.25,235.2969 Q618.4688,234.9219 617.8125,234.7344 Q617.1563,234.5313 616.3594,234.5313 Z " fill="#000000"/><text fill="#000000" font-family="sans-serif" font-size="14" lengthAdjust="spacing" textLength="203.3212" x="630.25" y="244.432">FRCoreOrganizationUACProfile</text><line style="stroke:#181818;stroke-width:0.5;" x1="602.25" x2="835.5712" y1="255" y2="255"/><line style="stroke:#181818;stroke-width:0.5;" x1="602.25" x2="835.5712" y1="263" y2="263"/></g><!--reverse link Organization to FRCoreOrganizationProfile--><g class="link" data-entity-1="Organization" data-entity-2="FRCoreOrganizationProfile" data-source-line="4" data-uid="lnk4" id="link_Organization_FRCoreOrganizationProfile"><path d="M453.91,73.26 C453.91,90.94 453.91,97.13 453.91,114.79" fill="none" id="Organization-backto-FRCoreOrganizationProfile" style="stroke:#181818;stroke-width:1;"/><polygon fill="none" points="453.91,55.26,447.91,73.26,459.91,73.26,453.91,55.26" style="stroke:#181818;stroke-width:1;"/></g><!--reverse link FRCoreOrganizationProfile to FRCoreOrganizationEtablissementProfile--><g class="link" data-entity-1="FRCoreOrganizationProfile" data-entity-2="FRCoreOrganizationEtablissementProfile" data-source-line="6" data-uid="lnk6" id="link_FRCoreOrganizationProfile_FRCoreOrganizationEtablissementProfile"><path d="M371.4076,169.441 C322.1276,187.031 271.85,204.98 222.54,222.57" fill="none" id="FRCoreOrganizationProfile-backto-FRCoreOrganizationEtablissementProfile" style="stroke:#181818;stroke-width:1;"/><polygon fill="none" points="388.36,163.39,369.3906,163.7902,373.4246,175.0918,388.36,163.39" style="stroke:#181818;stroke-width:1;"/></g><!--reverse link FRCoreOrganizationProfile to FRCoreOrganizationUFProfile--><g class="link" data-entity-1="FRCoreOrganizationProfile" data-entity-2="FRCoreOrganizationUFProfile" data-source-line="8" data-uid="lnk8" id="link_FRCoreOrganizationProfile_FRCoreOrganizationUFProfile"><path d="M453.91,181.26 C453.91,198.94 453.91,205.13 453.91,222.79" fill="none" id="FRCoreOrganizationProfile-backto-FRCoreOrganizationUFProfile" style="stroke:#181818;stroke-width:1;"/><polygon fill="none" points="453.91,163.26,447.91,181.26,459.91,181.26,453.91,163.26" style="stroke:#181818;stroke-width:1;"/></g><!--reverse link FRCoreOrganizationProfile to FRCoreOrganizationUACProfile--><g class="link" data-entity-1="FRCoreOrganizationProfile" data-entity-2="FRCoreOrganizationUACProfile" data-source-line="10" data-uid="lnk10" id="link_FRCoreOrganizationProfile_FRCoreOrganizationUACProfile"><path d="M529.1026,170.075 C573.1526,187.695 616.56,205.06 660.58,222.67" fill="none" id="FRCoreOrganizationProfile-backto-FRCoreOrganizationUACProfile" style="stroke:#181818;stroke-width:1;"/><polygon fill="none" points="512.39,163.39,526.8742,175.6459,531.3309,164.5042,512.39,163.39" style="stroke:#181818;stroke-width:1;"/></g><!--SRC=[Iyv9B2vMy2zAJypBh4eioSpFu-9A1ekv1Jdd5wKYomGKvQTbvgGgf5QKfEQb4AlBjIGnAIUpk3WrDpMl1Dq8d9RWDY_KZHg6E3eJRme0]--></g></svg>