<svg xmlns="http://www.w3.org/2000/svg" xmlns:xlink="http://www.w3.org/1999/xlink" contentStyleType="text/css" data-diagram-type="CLASS" height="334px" preserveAspectRatio="none" style="width:963px;height:334px;background:#FFFFFF;" version="1.1" viewBox="0 0 963 334" width="963px" zoomAndPan="magnify"><defs/><g><g class="entity" data-entity="Organization" data-source-line="2" data-uid="ent0002" id="entity_Organization"><rect fill="#FFFFE6" height="63.0679" rx="2.5" ry="2.5" style="stroke:#AD1F2F;stroke-width:2;" width="139.6657" x="444.08" y="7"/><text fill="#000000" font-family="sans-serif" font-size="14" lengthAdjust="spacing" textLength="85.6657" x="471.08" y="43.9659">Organization</text></g><!--class FRCoreOrganizationProfile--><g class="entity" data-entity="FRCoreOrganizationProfile" data-source-line="4" data-uid="ent0003" id="entity_FRCoreOrganizationProfile"><rect fill="#F1F1F1" height="69.0679" rx="2.5" ry="2.5" style="stroke:#181818;stroke-width:2;" width="247.2933" x="390.26" y="130.06"/><ellipse cx="405.26" cy="164.594" fill="#F1F1F1" rx="11" ry="11" style="stroke:#181818;stroke-width:1;"/><path d="M405.885,158.4221 Q408.3538,158.4221 409.5256,159.4377 Q410.7131,160.4377 410.7131,162.2658 Q410.7131,163.0627 410.4475,163.8127 Q410.1819,164.5471 409.5725,165.1252 Q408.9631,165.7033 407.9788,166.0471 Q407.01,166.3752 405.6038,166.3752 L404.4631,166.3752 L404.4631,171.094 L402.4163,171.094 L402.4163,158.4221 L405.885,158.4221 Z M405.7444,160.2658 L404.4631,160.2658 L404.4631,164.5315 L405.4319,164.5315 Q406.5413,164.5315 407.2444,164.3127 Q407.9475,164.0783 408.2756,163.6096 Q408.6038,163.1408 408.6038,162.3283 Q408.6038,161.2815 407.9319,160.7815 Q407.2756,160.2658 405.7444,160.2658 Z " fill="#000000"/><text fill="#000000" font-family="sans-serif" font-size="14" lengthAdjust="spacing" textLength="175.2933" x="439.26" y="170.0259">FRCoreOrganizationProfile</text></g><!--class FRCoreOrganizationEtablissementProfile--><g class="entity" data-entity="FRCoreOrganizationEtablissementProfile" data-source-line="6" data-uid="ent0005" id="entity_FRCoreOrganizationEtablissementProfile"><rect fill="#F1F1F1" height="69.0679" rx="2.5" ry="2.5" style="stroke:#181818;stroke-width:2;" width="339.819" x="7" y="259.13"/><ellipse cx="22" cy="293.664" fill="#F1F1F1" rx="11" ry="11" style="stroke:#181818;stroke-width:1;"/><path d="M22.625,287.4921 Q25.0938,287.4921 26.2656,288.5077 Q27.4531,289.5077 27.4531,291.3358 Q27.4531,292.1327 27.1875,292.8827 Q26.9219,293.6171 26.3125,294.1952 Q25.7031,294.7733 24.7188,295.1171 Q23.75,295.4452 22.3438,295.4452 L21.2031,295.4452 L21.2031,300.164 L19.1563,300.164 L19.1563,287.4921 L22.625,287.4921 Z M22.4844,289.3358 L21.2031,289.3358 L21.2031,293.6015 L22.1719,293.6015 Q23.2813,293.6015 23.9844,293.3827 Q24.6875,293.1483 25.0156,292.6796 Q25.3438,292.2108 25.3438,291.3983 Q25.3438,290.3515 24.6719,289.8515 Q24.0156,289.3358 22.4844,289.3358 Z " fill="#000000"/><text fill="#000000" font-family="sans-serif" font-size="14" lengthAdjust="spacing" textLength="267.819" x="56" y="299.0959">FRCoreOrganizationEtablissementProfile</text></g><!--class FRCoreOrganizationUFProfile--><g class="entity" data-entity="FRCoreOrganizationUFProfile" data-source-line="8" data-uid="ent0007" id="entity_FRCoreOrganizationUFProfile"><rect fill="#F1F1F1" height="69.0679" rx="2.5" ry="2.5" style="stroke:#181818;stroke-width:2;" width="264.7933" x="381.51" y="259.13"/><ellipse cx="396.51" cy="293.664" fill="#F1F1F1" rx="11" ry="11" style="stroke:#181818;stroke-width:1;"/><path d="M397.135,287.4921 Q399.6038,287.4921 400.7756,288.5077 Q401.9631,289.5077 401.9631,291.3358 Q401.9631,292.1327 401.6975,292.8827 Q401.4319,293.6171 400.8225,294.1952 Q400.2131,294.7733 399.2288,295.1171 Q398.26,295.4452 396.8538,295.4452 L395.7131,295.4452 L395.7131,300.164 L393.6663,300.164 L393.6663,287.4921 L397.135,287.4921 Z M396.9944,289.3358 L395.7131,289.3358 L395.7131,293.6015 L396.6819,293.6015 Q397.7913,293.6015 398.4944,293.3827 Q399.1975,293.1483 399.5256,292.6796 Q399.8538,292.2108 399.8538,291.3983 Q399.8538,290.3515 399.1819,289.8515 Q398.5256,289.3358 396.9944,289.3358 Z " fill="#000000"/><text fill="#000000" font-family="sans-serif" font-size="14" lengthAdjust="spacing" textLength="192.7933" x="430.51" y="299.0959">FRCoreOrganizationUFProfile</text></g><!--class FRCoreOrganizationUACProfile--><g class="entity" data-entity="FRCoreOrganizationUACProfile" data-source-line="10" data-uid="ent0009" id="entity_FRCoreOrganizationUACProfile"><rect fill="#F1F1F1" height="69.0679" rx="2.5" ry="2.5" style="stroke:#181818;stroke-width:2;" width="275.3212" x="681.25" y="259.13"/><ellipse cx="696.25" cy="293.664" fill="#F1F1F1" rx="11" ry="11" style="stroke:#181818;stroke-width:1;"/><path d="M696.875,287.4921 Q699.3438,287.4921 700.5156,288.5077 Q701.7031,289.5077 701.7031,291.3358 Q701.7031,292.1327 701.4375,292.8827 Q701.1719,293.6171 700.5625,294.1952 Q699.9531,294.7733 698.9688,295.1171 Q698,295.4452 696.5938,295.4452 L695.4531,295.4452 L695.4531,300.164 L693.4063,300.164 L693.4063,287.4921 L696.875,287.4921 Z M696.7344,289.3358 L695.4531,289.3358 L695.4531,293.6015 L696.4219,293.6015 Q697.5313,293.6015 698.2344,293.3827 Q698.9375,293.1483 699.2656,292.6796 Q699.5938,292.2108 699.5938,291.3983 Q699.5938,290.3515 698.9219,289.8515 Q698.2656,289.3358 696.7344,289.3358 Z " fill="#000000"/><text fill="#000000" font-family="sans-serif" font-size="14" lengthAdjust="spacing" textLength="203.3212" x="730.25" y="299.0959">FRCoreOrganizationUACProfile</text></g><!--reverse link Organization to FRCoreOrganizationProfile--><g class="link" data-entity-1="Organization" data-entity-2="FRCoreOrganizationProfile" data-source-line="4" data-uid="lnk4" id="link_Organization_FRCoreOrganizationProfile"><path d="M513.91,88.52 C513.91,106.6 513.91,111.44 513.91,129.96" fill="none" id="Organization-backto-FRCoreOrganizationProfile" style="stroke:#181818;stroke-width:1;"/><polygon fill="none" points="513.91,70.52,507.91,88.52,519.91,88.52,513.91,70.52" style="stroke:#181818;stroke-width:1;"/></g><!--reverse link FRCoreOrganizationProfile to FRCoreOrganizationEtablissementProfile--><g class="link" data-entity-1="FRCoreOrganizationProfile" data-entity-2="FRCoreOrganizationEtablissementProfile" data-source-line="6" data-uid="lnk6" id="link_FRCoreOrganizationProfile_FRCoreOrganizationEtablissementProfile"><path d="M407.1979,205.8318 C358.6479,224.1418 315.71,240.33 267.11,258.65" fill="none" id="FRCoreOrganizationProfile-backto-FRCoreOrganizationEtablissementProfile" style="stroke:#181818;stroke-width:1;"/><polygon fill="none" points="424.04,199.48,405.0807,200.2177,409.3152,211.4458,424.04,199.48" style="stroke:#181818;stroke-width:1;"/></g><!--reverse link FRCoreOrganizationProfile to FRCoreOrganizationUFProfile--><g class="link" data-entity-1="FRCoreOrganizationProfile" data-entity-2="FRCoreOrganizationUFProfile" data-source-line="8" data-uid="lnk8" id="link_FRCoreOrganizationProfile_FRCoreOrganizationUFProfile"><path d="M513.91,217.32 C513.91,235.7 513.91,240.38 513.91,258.79" fill="none" id="FRCoreOrganizationProfile-backto-FRCoreOrganizationUFProfile" style="stroke:#181818;stroke-width:1;"/><polygon fill="none" points="513.91,199.32,507.91,217.32,519.91,217.32,513.91,199.32" style="stroke:#181818;stroke-width:1;"/></g><!--reverse link FRCoreOrganizationProfile to FRCoreOrganizationUACProfile--><g class="link" data-entity-1="FRCoreOrganizationProfile" data-entity-2="FRCoreOrganizationUACProfile" data-source-line="10" data-uid="lnk10" id="link_FRCoreOrganizationProfile_FRCoreOrganizationUACProfile"><path d="M611.8552,206.4036 C655.7952,224.7136 693.29,240.33 737.27,258.65" fill="none" id="FRCoreOrganizationProfile-backto-FRCoreOrganizationUACProfile" style="stroke:#181818;stroke-width:1;"/><polygon fill="none" points="595.24,199.48,609.5473,211.942,614.163,200.8652,595.24,199.48" style="stroke:#181818;stroke-width:1;"/></g><!--SRC=[hP312i8m38RlVOh0Na1ty3xdUdM8Fa3NngskQqRIW_ZqYY1CPGF1tFxmvViXr5pG9jXpQwA_cUGf0cJwCTL6gP4faQK0-b0IuvIgcSu-8E0rONJoPbWyh99fWXV10MFwjCpsB2fF-a-Ueln1r7c7CE3G8Cihf8wSA2MzZwDXCq1jdFEnXNmrMTBpwLjYXrnI88QisArrhcUOO-Tj7r44yWbXWn7v1ku0]--></g></svg>